<?xml version="1.0" encoding="utf-8"?>
<!-- Generator: Adobe Illustrator 15.0.2, SVG Export Plug-In . SVG Version: 6.00 Build 0)  -->
<!DOCTYPE svg PUBLIC "-//W3C//DTD SVG 1.1//EN" "http://www.w3.org/Graphics/SVG/1.1/DTD/svg11.dtd">
<svg version="1.1" id="Layer_1" xmlns="http://www.w3.org/2000/svg" xmlns:xlink="http://www.w3.org/1999/xlink" x="0px" y="0px"
	 width="512px" height="512px" viewBox="0 0 512 512" enable-background="new 0 0 512 512" xml:space="preserve">
<path fill="#808080" d="M384,336V144H128v192h112v16h-48v16h128v-16h-48v-16H384z M160,176h192v128H160V176z"/>
<rect x="175.5" y="204" fill="#808080" width="48" height="16"/>
<rect x="175.5" y="236" fill="#808080" width="48" height="16"/>
<rect x="175.5" y="268" fill="#808080" width="48" height="16"/>
<path fill="#808080" d="M271.5,252h47.198c-3.706,18.258-19.847,32-39.198,32c-22.092,0-40-17.908-40-40
	c0-19.352,13.742-35.491,32-39.198V252z"/>
<path fill="#808080" d="M295.5,188c22.092,0,40,17.908,40,40c0,2.739-0.277,5.415-0.802,8H287.5v-47.198
	C290.085,188.277,292.761,188,295.5,188z"/>
</svg>
