<?xml version="1.0" encoding="utf-8"?>
<!-- Generator: Adobe Illustrator 15.0.2, SVG Export Plug-In . SVG Version: 6.00 Build 0)  -->
<!DOCTYPE svg PUBLIC "-//W3C//DTD SVG 1.1//EN" "http://www.w3.org/Graphics/SVG/1.1/DTD/svg11.dtd">
<svg version="1.1" id="Layer_1" xmlns="http://www.w3.org/2000/svg" xmlns:xlink="http://www.w3.org/1999/xlink" x="0px" y="0px"
	 width="512px" height="512px" viewBox="0 0 512 512" enable-background="new 0 0 512 512" xml:space="preserve">
<path fill="#808080" d="M192,330h128v16H192V330z M208,298h16v24h-16V298z M232,266h16v56h-16V266z M256,290h16v32h-16V290z
	 M280,242h16v80h-16V242z"/>
<path fill="#808080" d="M353.857,177.857l-35.715-35.715C310.363,134.364,295,128,284,128H164c-11,0-20,9-20,20v216c0,11,9,20,20,20
	h184c11,0,20-9,20-20V212C368,201,361.637,185.636,353.857,177.857z M342.545,189.171c0.782,0.783,1.562,1.744,2.319,2.829H304
	v-40.864c1.085,0.758,2.046,1.538,2.828,2.32L342.545,189.171z M352,364c0,2.168-1.832,4-4,4H164c-2.168,0-4-1.832-4-4V148
	c0-2.168,1.832-4,4-4h120c1.208,0,2.563,0.152,4,0.426V208h63.574c0.273,1.437,0.426,2.792,0.426,4V364z"/>
</svg>
